<?xml version="1.0" encoding="iso-8859-1"?>
<!-- Generator: Adobe Illustrator 19.0.0, SVG Export Plug-In . SVG Version: 6.00 Build 0)  -->
<svg version="1.1" id="Layer_1" xmlns="http://www.w3.org/2000/svg" xmlns:xlink="http://www.w3.org/1999/xlink" x="0px" y="0px"
	 viewBox="0 0 512 512" style="enable-background:new 0 0 512 512;" xml:space="preserve">
<g>
	<g>
		<g>
			<path d="M192.533,397.08h10.763v27.574c0,4.432,3.592,8.025,8.025,8.025s8.025-3.593,8.025-8.025V397.08h12.483v27.574
				c0,4.432,3.592,8.025,8.025,8.025s8.025-3.593,8.025-8.025V397.08h12.482v27.574c0,4.432,3.592,8.025,8.025,8.025
				s8.025-3.593,8.025-8.025V397.08h12.483v27.574c0,4.432,3.592,8.025,8.025,8.025s8.025-3.593,8.025-8.025V397.08h9.567
				c4.433,0,8.025-3.593,8.025-8.025v-20.173h19.795c13.274,0,24.074-10.799,24.074-24.074v-21.674h20.173
				c4.433,0,8.025-3.593,8.025-8.025v-9.224h29.113c4.433,0,8.025-3.593,8.025-8.025c0-4.432-3.592-8.025-8.025-8.025h-29.113
				v-12.483h29.113c4.433,0,8.025-3.593,8.025-8.025c0-4.432-3.592-8.025-8.025-8.025h-29.113v-12.482h29.113
				c4.433,0,8.025-3.593,8.025-8.025c0-4.432-3.592-8.025-8.025-8.025h-29.113v-12.483h29.113c4.433,0,8.025-3.593,8.025-8.025
				c0-4.432-3.592-8.025-8.025-8.025h-29.113v-11.105c0-4.432-3.592-8.025-8.025-8.025h-20.173v-17.914
				c0-13.275-10.8-24.074-24.074-24.074h-19.795v-22.053c0-4.432-3.592-8.025-8.025-8.025h-9.567V85.465
				c0-4.432-3.592-8.025-8.025-8.025s-8.025,3.593-8.025,8.025v27.574h-12.483V85.465c0-4.432-3.592-8.025-8.025-8.025
				s-8.025,3.593-8.025,8.025v27.574h-12.482V85.465c0-4.432-3.592-8.025-8.025-8.025s-8.025,3.593-8.025,8.025v27.574h-12.483
				V85.465c0-4.432-3.592-8.025-8.025-8.025s-8.025,3.593-8.025,8.025v27.574h-10.763c-4.433,0-8.025,3.593-8.025,8.025v22.053
				h-19.795c-13.274,0-24.075,10.799-24.075,24.074v17.914h-20.173c-4.433,0-8.025,3.593-8.025,8.025v11.105H84.526
				c-4.433,0-8.025,3.593-8.025,8.025c0,4.432,3.592,8.025,8.025,8.025h27.917v12.483H84.526c-4.433,0-8.025,3.593-8.025,8.025
				s3.592,8.025,8.025,8.025h27.917v12.482H84.526c-4.433,0-8.025,3.593-8.025,8.025c0,4.432,3.592,8.025,8.025,8.025h27.917v12.483
				H84.526c-4.433,0-8.025,3.593-8.025,8.025s3.592,8.025,8.025,8.025h27.917v9.224c0,4.432,3.592,8.025,8.025,8.025h20.173v21.676
				c0,13.275,10.8,24.074,24.074,24.074h19.795v20.173C184.508,393.487,188.1,397.08,192.533,397.08z M140.64,307.083h-12.149
				V201.156h12.149V307.083z M306.486,381.031H200.558v-12.148h105.928V381.031z M306.486,129.09v12.147H200.558V129.09H306.486z
				 M164.714,352.833c-4.425,0-8.025-3.599-8.025-8.025v-29.7V193.131v-25.938c0-4.425,3.599-8.025,8.025-8.025H342.33
				c4.425,0,8.025,3.599,8.025,8.025v25.938v24.609c0,4.432,3.592,8.025,8.025,8.025s8.025-3.593,8.025-8.025v-16.585h12.149
				v105.928h-12.149V243.42c0-4.432-3.592-8.025-8.025-8.025s-8.025,3.593-8.025,8.025v71.688v29.7c0,4.425-3.599,8.025-8.025,8.025
				h-27.819H192.533H164.714z"/>
			<path d="M334.305,328.759V183.242c0-4.432-3.592-8.025-8.025-8.025H180.763c-4.433,0-8.025,3.593-8.025,8.025v145.517
				c0,4.432,3.592,8.025,8.025,8.025H326.28C330.713,336.784,334.305,333.191,334.305,328.759z M318.255,320.734H188.788V191.267
				h129.467V320.734z"/>
			<path d="M76.799,51.915c0-13.078-10.639-23.718-23.717-23.718c-13.078,0-23.718,10.64-23.718,23.718s10.64,23.717,23.718,23.717
				C66.16,75.632,76.799,64.993,76.799,51.915z M53.082,59.583c-4.229,0-7.669-3.44-7.669-7.667c0-4.229,3.44-7.669,7.669-7.669
				c4.227,0,7.667,3.44,7.667,7.669C60.75,56.143,57.31,59.583,53.082,59.583z"/>
			<path d="M460.084,75.632c13.078,0,23.717-10.64,23.717-23.717c0-13.078-10.639-23.718-23.717-23.718
				c-13.078,0-23.718,10.64-23.718,23.718C436.366,64.993,447.006,75.632,460.084,75.632z M460.084,44.247
				c4.227,0,7.667,3.44,7.667,7.669s-3.44,7.667-7.667,7.667c-4.229,0-7.669-3.44-7.669-7.667
				C452.416,47.687,455.856,44.247,460.084,44.247z"/>
			<path d="M460.084,484.296c13.078,0,23.717-10.64,23.717-23.718c0-13.078-10.639-23.718-23.717-23.718
				c-13.078,0-23.718,10.64-23.718,23.718C436.366,473.656,447.006,484.296,460.084,484.296z M460.084,452.911
				c4.227,0,7.667,3.44,7.667,7.669c0,4.229-3.44,7.669-7.667,7.669c-4.229,0-7.669-3.44-7.669-7.669
				C452.416,456.349,455.856,452.911,460.084,452.911z"/>
			<path d="M463.428,0h-76.85c-4.433,0-8.025,3.593-8.025,8.025v18.926c0,2.655-2.159,4.815-4.815,4.815H161.504
				c-2.655,0-4.815-2.16-4.815-4.815V8.025c0-4.432-3.592-8.025-8.025-8.025H48.571C21.79,0,0.001,21.789,0.001,48.572v414.857
				C0.001,490.211,21.79,512,48.571,512h100.093c4.433,0,8.025-3.593,8.025-8.025v-18.926c0-2.655,2.16-4.815,4.815-4.815h23.031
				c4.433,0,8.025-3.593,8.025-8.025c0-4.432-3.592-8.025-8.025-8.025h-23.031c-11.504,0-20.865,9.36-20.865,20.865v10.901H48.571
				c-17.933,0-32.521-14.589-32.521-32.522V48.572c0-17.933,14.589-32.522,32.521-32.522h92.068v10.901
				c0,11.504,9.36,20.865,20.865,20.865h212.233c11.504,0,20.865-9.36,20.865-20.865V16.05h68.825
				c17.933,0,32.522,14.589,32.522,32.522v110.596h-20.173c-4.433,0-8.025,3.593-8.025,8.025v177.616
				c0,4.432,3.592,8.025,8.025,8.025h20.173v110.595c0,17.933-14.589,32.522-32.522,32.522h-68.825v-10.901
				c0-11.504-9.36-20.865-20.865-20.865H211.286c-4.433,0-8.025,3.593-8.025,8.025c0,4.432,3.592,8.025,8.025,8.025h162.453
				c2.656,0,4.815,2.16,4.815,4.815v18.926c0,4.432,3.592,8.025,8.025,8.025h76.85c26.782,0,48.572-21.789,48.572-48.572v-118.62
				V167.192V48.572C511.998,21.789,490.209,0,463.428,0z M495.949,336.784h-12.147V175.217h12.147V336.784z"/>
			<path d="M210.709,220.308h86.82c4.433,0,8.025-3.593,8.025-8.025c0-4.432-3.592-8.025-8.025-8.025h-86.82
				c-4.433,0-8.025,3.593-8.025,8.025C202.684,216.715,206.277,220.308,210.709,220.308z"/>
			<path d="M210.709,307.859h86.82c4.433,0,8.025-3.593,8.025-8.025s-3.592-8.025-8.025-8.025h-86.82
				c-4.433,0-8.025,3.593-8.025,8.025S206.277,307.859,210.709,307.859z"/>
			<path d="M210.709,278.675h86.82c4.433,0,8.025-3.593,8.025-8.025c0-4.432-3.592-8.025-8.025-8.025h-86.82
				c-4.433,0-8.025,3.593-8.025,8.025C202.684,275.083,206.277,278.675,210.709,278.675z"/>
			<path d="M210.709,249.492h86.82c4.433,0,8.025-3.593,8.025-8.025s-3.592-8.025-8.025-8.025h-86.82
				c-4.433,0-8.025,3.593-8.025,8.025S206.277,249.492,210.709,249.492z"/>
			<path d="M48.672,343.168h-0.022c-4.433,0-8.013,3.593-8.013,8.025s3.604,8.025,8.037,8.025c4.433,0,8.025-3.593,8.025-8.025
				S53.105,343.168,48.672,343.168z"/>
			<path d="M48.672,430.719h-0.022c-4.433,0-8.013,3.593-8.013,8.025s3.604,8.025,8.037,8.025c4.433,0,8.025-3.593,8.025-8.025
				C56.696,434.312,53.105,430.719,48.672,430.719z"/>
			<path d="M48.672,401.536h-0.022c-4.433,0-8.013,3.593-8.013,8.025c0,4.432,3.604,8.025,8.037,8.025
				c4.433,0,8.025-3.593,8.025-8.025C56.696,405.129,53.105,401.536,48.672,401.536z"/>
			<path d="M48.672,372.352h-0.022c-4.433,0-8.013,3.593-8.013,8.025c0,4.432,3.604,8.025,8.037,8.025
				c4.433,0,8.025-3.593,8.025-8.025C56.698,375.945,53.105,372.352,48.672,372.352z"/>
			<path d="M48.672,92.067h-0.022c-4.433,0-8.013,3.593-8.013,8.025c0,4.432,3.604,8.025,8.037,8.025
				c4.433,0,8.025-3.593,8.025-8.025C56.698,95.66,53.105,92.067,48.672,92.067z"/>
			<path d="M48.672,179.618h-0.022c-4.433,0-8.013,3.593-8.013,8.025c0,4.432,3.604,8.025,8.037,8.025
				c4.433,0,8.025-3.593,8.025-8.025C56.696,183.211,53.105,179.618,48.672,179.618z"/>
			<path d="M48.672,150.434h-0.022c-4.433,0-8.013,3.593-8.013,8.025s3.604,8.025,8.037,8.025c4.433,0,8.025-3.593,8.025-8.025
				C56.696,154.027,53.105,150.434,48.672,150.434z"/>
			<path d="M48.672,121.251h-0.022c-4.433,0-8.013,3.593-8.013,8.025c0,4.432,3.604,8.025,8.037,8.025
				c4.433,0,8.025-3.593,8.025-8.025C56.696,124.844,53.105,121.251,48.672,121.251z"/>
			<path d="M79.948,474.547c4.433,0,8.025-3.605,8.025-8.037s-3.592-8.025-8.025-8.025c-4.432,0-8.025,3.593-8.025,8.025v0.022
				C71.923,470.965,75.516,474.547,79.948,474.547z"/>
			<path d="M101.107,466.51v0.022c0,4.432,3.592,8.013,8.025,8.013c4.433,0,8.025-3.605,8.025-8.037
				c0-4.432-3.592-8.025-8.025-8.025C104.699,458.485,101.107,462.078,101.107,466.51z"/>
		</g>
	</g>
</g>
<g>
</g>
<g>
</g>
<g>
</g>
<g>
</g>
<g>
</g>
<g>
</g>
<g>
</g>
<g>
</g>
<g>
</g>
<g>
</g>
<g>
</g>
<g>
</g>
<g>
</g>
<g>
</g>
<g>
</g>
</svg>
