<svg height="512pt" viewBox="0 -56 512.001 512" width="512pt" xmlns="http://www.w3.org/2000/svg"><path d="m421.378906 138.972656c4.140625 0 7.5-3.355468 7.5-7.5 0-4.140625-3.359375-7.5-7.5-7.5h-12.90625v-1.78125c0-11.910156-9.691406-21.601562-21.601562-21.601562h-1.78125v-12.90625c0-4.144532-3.359375-7.5-7.5-7.5-4.144532 0-7.5 3.355468-7.5 7.5v12.90625h-6.480469v-12.90625c0-4.144532-3.359375-7.5-7.5-7.5-4.144531 0-7.5 3.355468-7.5 7.5v12.90625h-1.785156c-11.910157 0-21.597657 9.691406-21.597657 21.601562v1.78125h-12.910156c-4.140625 0-7.5 3.359375-7.5 7.5 0 4.144532 3.359375 7.5 7.5 7.5h12.910156v6.480469h-12.910156c-4.140625 0-7.5 3.359375-7.5 7.5 0 4.144531 3.359375 7.5 7.5 7.5h12.910156v1.785156c0 11.910157 9.6875 21.597657 21.597657 21.597657h1.785156v12.910156c0 4.140625 3.355469 7.5 7.5 7.5 4.140625 0 7.5-3.359375 7.5-7.5v-12.910156h6.480469v12.910156c0 4.140625 3.355468 7.5 7.5 7.5 4.140625 0 7.5-3.359375 7.5-7.5v-12.910156h1.78125c11.910156 0 21.601562-9.6875 21.601562-21.597657v-1.785156h12.90625c4.140625 0 7.5-3.355469 7.5-7.5 0-4.140625-3.359375-7.5-7.5-7.5h-12.90625v-6.480469zm-27.90625 23.265625c0 3.640625-2.960937 6.601563-6.601562 6.601563h-40.046875c-3.640625 0-6.601563-2.960938-6.601563-6.601563v-40.046875c0-3.640625 2.960938-6.601562 6.601563-6.601562h40.046875c3.640625 0 6.601562 2.960937 6.601562 6.601562zm0 0"/><path d="m279.875 310.914062c0 4.140626 3.355469 7.5 7.5 7.5h158.945312c4.144532 0 7.5-3.359374 7.5-7.5v-47.761718c0-4.140625-3.355468-7.5-7.5-7.5h-158.945312c-4.144531 0-7.5 3.359375-7.5 7.5zm15-40.257812h143.945312v32.757812h-143.945312zm0 0"/><path d="m36.644531 250.371094c-4.140625 0-7.5 3.355468-7.5 7.5 0 4.140625 3.359375 7.5 7.5 7.5h21.28125v45.542968c0 4.144532 3.355469 7.5 7.5 7.5h40.507813c4.144531 0 7.5-3.355468 7.5-7.5v-45.542968h16.621094v45.542968c0 4.144532 3.355468 7.5 7.5 7.5h40.507812c4.144531 0 7.5-3.355468 7.5-7.5v-45.542968h21.28125c4.140625 0 7.5-3.359375 7.5-7.5 0-4.144532-3.359375-7.5-7.5-7.5h-21.28125v-127.082032h21.28125c4.140625 0 7.5-3.359374 7.5-7.5 0-4.144531-3.359375-7.5-7.5-7.5h-21.28125v-45.546874c0-4.144532-3.355469-7.5-7.5-7.5h-40.507812c-4.144532 0-7.5 3.355468-7.5 7.5v45.546874h-16.621094v-45.546874c0-4.144532-3.355469-7.5-7.5-7.5h-40.507813c-4.144531 0-7.5 3.355468-7.5 7.5v45.546874h-21.28125c-4.140625 0-7.5 3.355469-7.5 7.5 0 4.140626 3.359375 7.5 7.5 7.5h21.28125v127.082032zm61.789063 53.042968h-25.507813v-38.046874h25.507813zm72.128906 0h-25.507812v-38.046874h25.507812zm0-53.042968h-25.507812v-127.082032h25.507812zm-25.507812-180.128906h25.507812v38.046874h-25.507812zm-15 53.046874v127.082032h-16.621094v-127.082032zm-57.128907-53.046874h25.507813v38.046874h-25.507813zm0 53.046874h25.507813v127.082032h-25.507813zm0 0"/><path d="m462.375 44.480469h8.695312c4.140626 0 7.5-3.355469 7.5-7.5 0-4.140625-3.359374-7.5-7.5-7.5h-8.695312c-4.144531 0-7.5 3.359375-7.5 7.5 0 4.144531 3.355469 7.5 7.5 7.5zm0 0"/><path d="m49.625 44.480469c4.144531 0 7.5-3.355469 7.5-7.5 0-4.140625-3.355469-7.5-7.5-7.5h-8.695312c-4.140626 0-7.5 3.359375-7.5 7.5 0 4.144531 3.359374 7.5 7.5 7.5zm0 0"/><path d="m462.375 369.886719h8.695312c4.140626 0 7.5-3.359375 7.5-7.5 0-4.144531-3.359374-7.5-7.5-7.5h-8.695312c-4.144531 0-7.5 3.355469-7.5 7.5 0 4.140625 3.355469 7.5 7.5 7.5zm0 0"/><path d="m40.929688 354.886719c-4.140626 0-7.5 3.355469-7.5 7.5 0 4.140625 3.359374 7.5 7.5 7.5h8.695312c4.144531 0 7.5-3.359375 7.5-7.5 0-4.144531-3.355469-7.5-7.5-7.5zm0 0"/><path d="m244.914062 105.386719c4.144532 0 7.5-3.355469 7.5-7.5v-13.511719c0-4.140625-3.355468-7.5-7.5-7.5-4.140624 0-7.5 3.359375-7.5 7.5v13.511719c0 4.144531 3.359376 7.5 7.5 7.5zm0 0"/><path d="m237.414062 144.984375c0 4.144531 3.359376 7.5 7.5 7.5 4.144532 0 7.5-3.355469 7.5-7.5v-13.511719c0-4.140625-3.355468-7.5-7.5-7.5-4.140624 0-7.5 3.359375-7.5 7.5zm0 0"/><path d="m237.414062 192.082031c0 4.140625 3.359376 7.5 7.5 7.5 4.144532 0 7.5-3.359375 7.5-7.5v-13.511719c0-4.144531-3.355468-7.5-7.5-7.5-4.140624 0-7.5 3.355469-7.5 7.5zm0 0"/><path d="m237.414062 239.175781c0 4.144531 3.359376 7.5 7.5 7.5 4.144532 0 7.5-3.355469 7.5-7.5v-13.507812c0-4.144531-3.355468-7.5-7.5-7.5-4.140624 0-7.5 3.355469-7.5 7.5zm0 0"/><path d="m237.414062 286.273438c0 4.144531 3.359376 7.5 7.5 7.5 4.144532 0 7.5-3.355469 7.5-7.5v-13.511719c0-4.140625-3.355468-7.5-7.5-7.5-4.140624 0-7.5 3.359375-7.5 7.5zm0 0"/><path d="m446.320312 157.101562c4.144532 0 7.5-3.355468 7.5-7.5v-77.386718c0-9.359375-7.613281-16.972656-16.972656-16.972656h-140c-9.359375 0-16.972656 7.613281-16.972656 16.972656v140c0 9.359375 7.613281 16.972656 16.972656 16.972656h140c9.355469 0 16.972656-7.613281 16.972656-16.972656v-37.367188c0-4.144531-3.355468-7.5-7.5-7.5-4.144531 0-7.5 3.355469-7.5 7.5v37.367188c0 1.085937-.886718 1.972656-1.972656 1.972656h-140c-1.089844 0-1.972656-.886719-1.972656-1.972656v-140c0-1.089844.882812-1.972656 1.972656-1.972656h140c1.085938 0 1.972656.882812 1.972656 1.972656v77.386718c0 4.144532 3.359376 7.5 7.5 7.5zm0 0"/><path d="m481.066406 0h-450.132812c-17.054688 0-30.933594 13.875-30.933594 30.933594v141.769531c0 4.144531 3.355469 7.5 7.5 7.5s7.5-3.355469 7.5-7.5v-141.769531c0-8.785156 7.148438-15.933594 15.933594-15.933594h450.132812c8.785156 0 15.933594 7.148438 15.933594 15.933594v337.5c0 8.785156-7.144531 15.933594-15.933594 15.933594h-54.921875v-30.171876c0-4.140624-3.355469-7.5-7.5-7.5h-105.160156c-4.140625 0-7.5 3.359376-7.5 7.5v30.171876h-99.972656v-30.171876c0-4.140624-3.355469-7.5-7.5-7.5h-105.15625c-4.144531 0-7.5 3.359376-7.5 7.5v30.171876h-54.921875c-8.785156 0-15.933594-7.148438-15.933594-15.933594v-170.484375c0-4.144531-3.355469-7.5-7.5-7.5s-7.5 3.355469-7.5 7.5v170.484375c0 17.058594 13.878906 30.933594 30.933594 30.933594h450.132812c17.058594 0 30.933594-13.875 30.933594-30.933594v-337.5c0-17.058594-13.878906-30.933594-30.933594-30.933594zm-380.210937 384.367188v-22.671876h90.15625v22.671876zm220.128906 0v-22.671876h90.160156v22.671876zm0 0"/></svg>