<svg height="512pt" viewBox="0 -135 512 512" width="512pt" xmlns="http://www.w3.org/2000/svg"><path d="m497.660156 56.457031c7.90625 0 14.339844-6.433593 14.339844-14.339843v-18.929688c0-12.785156-10.402344-23.1875-23.1875-23.1875h-389.578125c-4.230469 0-7.664063 3.433594-7.664063 7.664062 0 4.234376 3.433594 7.664063 7.664063 7.664063h389.578125c4.332031 0 7.859375 3.527344 7.859375 7.859375v17.9375c-15.875 0-24.765625-1.609375-33.558594 7.183594-15.453125 15.453125-4.351562 41.875 17.78125 41.875h15.777344v64.445312c0 4.332032-3.527344 7.859375-7.859375 7.859375-1.6875 0-456.335938 0-465.625 0-4.332031 0-7.859375-3.527343-7.859375-7.859375v-64.445312h16.210937c13.582032 0 24.527344-10.992188 24.527344-24.53125-.078125-13.894532-11.566406-24.527344-24.96875-24.527344h-15.769531v-17.933594c0-4.335937 3.527344-7.859375 7.859375-7.859375h45.386719c4.234375 0 7.667969-3.433593 7.667969-7.667969 0-4.230468-3.433594-7.664062-7.667969-7.664062h-45.386719c-12.785156 0-23.1875 10.402344-23.1875 23.191406v18.925782c0 7.90625 6.433594 14.339843 14.339844 14.339843h16.757812c8.550782 0 12.777344 9.855469 6.949219 15.703125-3.480469 3.480469-5.75 2.691406-23.707031 2.691406-7.90625 0-14.339844 6.433594-14.339844 14.339844v65.4375c0 12.785156 10.402344 23.1875 23.1875 23.1875h3.640625v56.722656c0 4.234376 3.429687 7.664063 7.664063 7.664063h204.644531c4.234375 0 7.664062-3.429687 7.664062-7.664063v-28.105468c0-5.070313 4.128907-9.199219 9.199219-9.199219 5.09375 0 9.199219 4.121094 9.199219 9.199219v28.105468c0 4.234376 3.429687 7.664063 7.664062 7.664063h204.644531c4.234376 0 7.664063-3.429687 7.664063-7.664063v-56.722656h3.640625c12.785156 0 23.1875-10.402344 23.1875-23.1875v-65.4375c0-7.90625-6.433594-14.339844-14.339844-14.339844h-16.765625c-8.519531 0-12.773437-9.871093-6.941406-15.703124 3.476563-3.476563 5.734375-2.691407 23.707031-2.691407zm-27.816406 170.417969h-19.152344v-31.867188c0-4.234374-3.433594-7.664062-7.664062-7.664062-4.234375 0-7.667969 3.429688-7.667969 7.664062v31.867188h-18.820313v-31.867188c0-4.234374-3.433593-7.664062-7.664062-7.664062-4.234375 0-7.667969 3.429688-7.667969 7.664062v31.867188h-18.820312v-31.867188c0-4.234374-3.433594-7.664062-7.664063-7.664062-4.234375 0-7.667968 3.429688-7.667968 7.664062v31.867188h-18.820313v-31.867188c0-4.234374-3.429687-7.664062-7.664063-7.664062-4.234374 0-7.664062 3.429688-7.664062 7.664062v31.867188h-18.824219v-31.867188c0-4.234374-3.429687-7.664062-7.664062-7.664062s-7.664063 3.429688-7.664063 7.664062v31.867188h-18.226562v-20.441406c0-13.519532-10.9375-24.527344-24.527344-24.527344-13.523438 0-24.527344 11-24.527344 24.527344v20.441406h-18.226562v-31.867188c0-4.234374-3.429688-7.664062-7.664063-7.664062s-7.664062 3.429688-7.664062 7.664062v31.867188h-18.824219v-31.867188c0-4.234374-3.429688-7.664062-7.664062-7.664062-4.234376 0-7.664063 3.429688-7.664063 7.664062v31.867188h-18.824219v-31.867188c0-4.234374-3.429687-7.664062-7.664062-7.664062s-7.664063 3.429688-7.664063 7.664062v31.867188h-18.824219v-31.867188c0-4.234374-3.429687-7.664062-7.664062-7.664062s-7.664062 3.429688-7.664062 7.664062v31.867188h-18.820313v-31.867188c0-4.234374-3.433594-7.664062-7.667969-7.664062-4.230468 0-7.664062 3.429688-7.664062 7.664062v31.867188h-19.152344v-49.058594h427.6875zm0 0"/><path d="m139.726562 149.871094c8.925782 0 16.1875-7.265625 16.1875-16.191406v-88.214844c0-8.925782-7.261718-16.191406-16.1875-16.191406h-30.714843c-8.925781 0-16.191407 7.265624-16.191407 16.191406v88.214844c0 8.925781 7.265626 16.191406 16.191407 16.191406zm-31.574218-16.191406c0-93.558594-.417969-89.074219.859375-89.074219 32.949219 0 31.574219-.371094 31.574219.855469 0 93.558593.417968 89.078124-.859376 89.078124-32.949218 0-31.574218.367188-31.574218-.859374zm0 0"/><path d="m227.480469 149.871094c8.925781 0 16.1875-7.265625 16.1875-16.191406v-88.214844c0-8.925782-7.261719-16.191406-16.1875-16.191406h-30.714844c-8.925781 0-16.191406 7.265624-16.191406 16.191406v88.214844c0 8.925781 7.265625 16.191406 16.191406 16.191406zm-31.574219-16.191406c0-93.558594-.417969-89.074219.859375-89.074219h30.714844c.472656 0 .859375.382812.859375.855469 0 93.558593.417968 89.078124-.859375 89.078124-32.949219 0-31.574219.367188-31.574219-.859374zm0 0"/><path d="m315.234375 149.871094c8.925781 0 16.191406-7.265625 16.191406-16.191406v-88.214844c0-8.925782-7.265625-16.191406-16.191406-16.191406h-30.714844c-8.925781 0-16.1875 7.265624-16.1875 16.191406v88.214844c0 8.925781 7.261719 16.191406 16.1875 16.191406zm-31.574219-16.191406c0-93.558594-.417968-89.074219.859375-89.074219 32.949219 0 31.574219-.371094 31.574219.855469 0 93.558593.417969 89.078124-.859375 89.078124-32.949219 0-31.574219.367188-31.574219-.859374zm0 0"/><path d="m402.988281 149.871094c8.925781 0 16.191407-7.265625 16.191407-16.191406v-88.214844c0-8.925782-7.265626-16.191406-16.191407-16.191406h-30.714843c-8.925782 0-16.1875 7.265624-16.1875 16.191406v88.214844c0 8.925781 7.261718 16.191406 16.1875 16.191406zm-31.574219-16.191406c0-93.558594-.417968-89.074219.859376-89.074219h30.714843c.476563 0 .859375.382812.859375.855469 0 93.558593.417969 89.078124-.859375 89.078124-32.949219 0-31.574219.367188-31.574219-.859374zm0 0"/></svg>