<svg height="512" viewBox="0 0 60 60" width="512" xmlns="http://www.w3.org/2000/svg"><g id="Page-1" fill="none" fill-rule="evenodd"><g id="005---Power-Supply" fill="rgb(0,0,0)" fill-rule="nonzero"><path id="Shape" d="m57 0h-54c-1.65685425 0-3 1.34314575-3 3v36c0 1.6568542 1.34314575 3 3 3h4v5c0 2.209139 1.790861 4 4 4h36c1.1045695 0 2 .8954305 2 2s-.8954305 2-2 2h-21c0-1.1045695-.8954305-2-2-2h-4c-1.1045695 0-2 .8954305-2 2v2c0 1.1045695.8954305 2 2 2h4c1.1045695 0 2-.8954305 2-2h21c2.209139 0 4-1.790861 4-4s-1.790861-4-4-4h-36c-1.1045695 0-2-.8954305-2-2v-5h2v3c0 1.1045695.8954305 2 2 2h42v5c-1.1045695 0-2 .8954305-2 2v4c0 1.1045695.8954305 2 2 2h2c1.1045695 0 2-.8954305 2-2v-4c0-1.1045695-.8954305-2-2-2v-5c0-1.1045695-.8954305-2-2-2h-42v-3h44c1.6568542 0 3-1.3431458 3-3v-36c0-1.65685425-1.3431458-3-3-3zm-37 57v-2h4v1 1zm37 1h-2v-4h2zm1-19c0 .5522847-.4477153 1-1 1h-54c-.55228475 0-1-.4477153-1-1v-36c0-.55228475.44771525-1 1-1h54c.5522847 0 1 .44771525 1 1z"/><path id="Shape" d="m13.51 12.63c.2255642-.0013084.4440607-.0788394.62-.22 1.2343229-.9869989 2.6668345-1.6964333 4.2-2.08.259353-.0637044.4824491-.2285027.6195752-.45767222.137126-.22916956.1768877-.50366792.1104248-.76232778-.1373917-.53139681-.6774214-.85273675-1.21-.72-1.8248855.44895689-3.530736 1.28823534-5 2.46-.2074797.1666732-.3399622.4091759-.3681156.6738175-.0281533.2646416.0503451.5295891.2181156.7361825.1971556.2433797.4969547.3803249.81.37z"/><path id="Shape" d="m9 20h.16c.49539279.006376.9207716-.3509422 1-.84.2195418-1.360051.701853-2.664329 1.42-3.84.2416157-.3066361.2826995-.7258415.1052122-1.0735513-.1774873-.3477099-.5410913-.5603438-.9311606-.5445384s-.735278.25716-.8840516.6180897c-.84571975 1.3962819-1.41917039 2.9401875-1.69 4.55-.07836266.5367193.28543971 1.0380567.82 1.13z"/><path id="Shape" d="m13 20c.0797099.0096348.1602901.0096348.24 0 .4706972.0137136.8871845-.3028167 1-.76.6274917-2.5058917 2.5841083-4.4625083 5.09-5.09.5161023-.1491291.8221608-.6793873.6931322-1.2008781-.1290287-.5214908-.6470354-.8478565-1.1731322-.7391219-3.2255639.805908-5.744092 3.3244361-6.55 6.55-.073538.2573061-.0408769.5333516.0906779.7663915s.3510257.4036283.6093221.4736085z"/><path id="Shape" d="m18.76 16.53c-.964433.4833073-1.7466927 1.265567-2.23 2.23-.1165059.239847-.1323974.5162909-.0441435.7679085.088254.2516177.2733435.4575683.5141435.5720915.1383204.0740366.2931229.1118772.45.11.3801569.0026457.7289345-.2104962.9-.55.2901533-.5797156.7602844-1.0498467 1.34-1.34.471418-.2561008.6567501-.838573.42-1.32-.1144525-.2434134-.3221387-.4304564-.5761627-.5188944-.254024-.0884379-.5329648-.0708133-.7738373.0488944z"/><path id="Shape" d="m18.33 31.88c-1.5331655-.3835667-2.9656771-1.0930011-4.2-2.08-.4287515-.3426824-1.0535791-.2757366-1.4.15-.1677705.2065934-.2462689.4715409-.2181156.7361825.0281534.2646416.1606359.5071443.3681156.6738175 1.469264 1.1717647 3.1751145 2.0110431 5 2.46.5325786.1327367 1.0726083-.1886032 1.21-.72.0656595-.2628635.0218465-.5411193-.1214124-.7710874-.1432588-.2299681-.3737005-.3919634-.6385876-.4489126z"/><path id="Shape" d="m10.15 23c-.091127-.5522847-.61271525-.926127-1.165-.835s-.92612698.6127153-.835 1.165c.27289129 1.6185666.85335427 3.1698623 1.71 4.57.1825417.2998614.5089527.4820443.86.48.1794833-.0000528.3556443-.0484107.51-.14.4713036-.2850903.6233209-.8976306.34-1.37-.7190121-1.1860971-1.2012432-2.5003467-1.42-3.87z"/><path id="Shape" d="m19.3 28c-2.5058917-.6274917-4.4625083-2.5841083-5.09-5.09-.0875301-.3465476-.3532921-.6200741-.6971762-.7175447-.3438841-.0974705-.713646-.004077-.97.245-.256354.2490771-.3603539.6159971-.2728238.9625447.809128 3.2217077 3.3270599 5.7357953 6.55 6.54.5225988.114247 1.0425587-.2030167 1.18-.72.1404156-.5297792-.1717681-1.0738709-.7-1.22z"/><path id="Shape" d="m19.66 23.9c-.5812783-.2927351-1.0515947-.7665614-1.34-1.35-.2491134-.4789108-.8333628-.6736606-1.32-.44-.490313.2495756-.6869243.8483464-.44 1.34.4833073.964433 1.265567 1.7466927 2.23 2.23.1400552.0693962.2937245.1069598.45.11.4608398-.0027311.8601381-.3200462.96688-.7683619.1067418-.4483157-.1067173-.9115255-.51688-1.1216381z"/><path id="Shape" d="m21 4c-9.3888407 0-17 7.6111593-17 17s7.6111593 17 17 17 17-7.6111593 17-17c0-4.5086803-1.7910663-8.8326968-4.9791847-12.02081528-3.1881185-3.18811843-7.512135-4.97918472-12.0208153-4.97918472zm0 32c-8.2842712 0-15-6.7157288-15-15s6.7157288-15 15-15 15 6.7157288 15 15c0 3.9782473-1.5803526 7.793556-4.3933983 10.6066017s-6.6283544 4.3933983-10.6066017 4.3933983z"/><path id="Shape" d="m23.67 10.33c1.5331655.3835667 2.9656771 1.0930011 4.2 2.08.1759393.1411606.3944358.2186916.62.22.3025884.0010289.5893699-.1350085.78-.37.1677705-.2065934.2462689-.4715409.2181156-.7361825-.0281534-.2646416-.1606359-.5071443-.3681156-.6738175-1.469264-1.17176466-3.1751145-2.01104311-5-2.46-.5325786-.13273675-1.0726083.18860319-1.21.72-.0656595.26286355-.0218465.54111929.1214124.77108738.1432588.22996812.3737005.39196342.6385876.44891262z"/><path id="Shape" d="m30.77 14c-.2291251.1369809-.3939699.3598867-.4578305.6190853-.0638605.2591985-.0214348.5331709.1178305.7609147.718147 1.175671 1.2004582 2.479949 1.42 3.84.0792284.4890578.5046072.846376 1 .84l.15-.06c.2629143-.0417227.4983418-.1865524.6541333-.4024081s.2190873-.4849197.1758667-.7475919c-.2708296-1.6098125-.8442802-3.1537181-1.69-4.55-.2982603-.4571364-.90799-.5906539-1.37-.3z"/><path id="Shape" d="m23.18 12.27c-.5256322-.1135208-1.046926.2089745-1.18.73-.1321055.5356491.1945496 1.0770912.73 1.21 2.5058917.6274917 4.4625083 2.5841083 5.09 5.09.1128155.4571833.5293028.7737136 1 .76.3125741.0091729.611443-.1284007.8077466-.3718172.1963037-.2434165.267438-.564647.1922534-.8681828-.8211124-3.2493554-3.3797422-5.773305-6.64-6.55z"/><path id="Shape" d="m22.34 18.32c.5797156.2901533 1.0498467.7602844 1.34 1.34.1710655.3395038.5198431.5526457.9.55.1467179-.0030163.2906395-.04071.42-.11.490313-.2495756.6869243-.8483464.44-1.34-.4833073-.964433-1.265567-1.7466927-2.23-2.23-.2371744-.1217785-.5131586-.1438052-.7666461-.061187-.2534876.0826182-.4634886.26304-.5833539.501187-.1190549.2421146-.135225.5220637-.0448384.7762759.0903865.2542122.2796595.4611148.5248384.5737241z"/><path id="Shape" d="m27.87 29.8c-1.2343229.9869989-2.6668345 1.6964333-4.2 2.08-.259353.0637044-.4824491.2285027-.6195752.4576722-.137126.2291696-.1768877.5036679-.1104248.7623278.1373917.5313968.6774214.8527367 1.21.72 1.8248855-.4489569 3.530736-1.2882353 5-2.46.3913839-.3512564.4438292-.9456366.12-1.36-.1591299-.2121732-.3960277-.3524422-.6585786-.3899495-.262551-.0375073-.5292482.0308196-.7414214.1899495z"/><path id="Shape" d="m33 22.2c-.5438292-.0903856-1.0582279.2764031-1.15.82-.221245 1.3627352-.7033937 2.6699695-1.42 3.85-.2833209.4723694-.1313036 1.0849097.34 1.37.1543557.0915893.3305167.1399472.51.14.3510473.0020443.6774583-.1801386.86-.48.8472579-1.3955382 1.4208211-2.9397468 1.69-4.55.0432206-.2626722-.0200752-.5317362-.1758667-.7475919s-.391219-.3606854-.6541333-.4024081z"/><path id="Shape" d="m29 22.18c-.5356491-.1321055-1.0770912.1945496-1.21.73-.6274917 2.5058917-2.5841083 4.4625083-5.09 5.09-.5282319.1461291-.8404156.6902208-.7 1.22.1373917.5313968.6774214.8527367 1.21.72 3.2229401-.8042047 5.740872-3.3182923 6.55-6.54.0656595-.2628635.0218465-.5411193-.1214124-.7710874-.1432588-.2299681-.3737005-.3919634-.6385876-.4489126z"/><path id="Shape" d="m22.79 25.79c.1562755-.0030402.3099448-.0406038.45-.11.964433-.4833073 1.7466927-1.265567 2.23-2.23.1165059-.239847.1323974-.5162909.0441435-.7679085-.088254-.2516177-.2733435-.4575683-.5141435-.5720915-.2371744-.1217785-.5131586-.1438052-.7666461-.061187-.2534876.0826182-.4634886.26304-.5833539.501187-.2884053.5834386-.7587217 1.0572649-1.34 1.35-.4101627.2101126-.6236218.6733224-.51688 1.1216381.1067419.4483157.5060402.7656308.96688.7683619z"/><circle id="Oval" cx="5" cy="5" r="1"/><circle id="Oval" cx="5" cy="37" r="1"/><circle id="Oval" cx="55" cy="5" r="1"/><circle id="Oval" cx="55" cy="37" r="1"/><circle id="Oval" cx="37" cy="5" r="1"/><circle id="Oval" cx="37" cy="37" r="1"/><path id="Shape" d="m44 24h8c1.1045695 0 2-.8954305 2-2v-4c0-1.1045695-.8954305-2-2-2h-8c-1.1045695 0-2 .8954305-2 2v4c0 1.1045695.8954305 2 2 2zm8-2h-3v-4h3zm-8-4h3v4h-3z"/><path id="Shape" d="m54 28c0-1.1045695-.8954305-2-2-2h-8c-1.1045695 0-2 .8954305-2 2v4.46c-.0021102.6706817.3320882 1.2977731.89 1.67l2.3 1.53c.3282464.2205862.7145221.3389049 1.11.34h3.4c.3954779-.0010951.7817536-.1194138 1.11-.34l2.3-1.53c.5579118-.3722269.8921102-.9993183.89-1.67zm-2 4.46-2.3 1.54h-3.4l-2.3-1.54v-4.46h8z"/><path id="Shape" d="m45.55 8.89 2.56 1.28-2.71 2c-.4418278.3313708-.5313708.9581722-.2 1.4.1888544.2518058.4852427.4.8.4.2163702 0 .4269038-.0701779.6-.2l4-3c.2753809-.207835.4241787-.5429422.3936767-.88659852-.0305021-.34365627-.2359953-.6473176-.5436767-.80340148l-2.56-1.25 2.71-2c.4418278-.33137085.5313708-.9581722.2-1.4s-.9581722-.53137085-1.4-.2l-4 3c-.2753809.20783497-.4241787.54294225-.3936767.88659852.0305021.34365627.2359953.6473176.5436767.80340148z"/><circle id="Oval" cx="46" cy="30" r="1"/><circle id="Oval" cx="50" cy="30" r="1"/></g></g></svg>